<svg xmlns="http://www.w3.org/2000/svg" fill="none" viewBox="20 17 72 100">
  <g clip-path="url(#clip0_364_47477)" filter="url(#filter0_d_364_47477)">
    <path
      d="M86 17H26C22.6863 17 20 19.6863 20 23V111C20 114.314 22.6863 117 26 117H86C89.3137 117 92 114.314 92 111V23C92 19.6863 89.3137 17 86 17Z"
      fill="#0071B2"></path>
    <path
      d="M49.0512 62.695C49.1632 64.2537 47.9912 65.5177 46.4325 65.5177C44.8725 65.5177 43.5178 64.2537 43.4058 62.695C43.2938 61.1363 44.4658 59.8723 46.0258 59.8723C47.5845 59.8723 48.9392 61.1363 49.0512 62.695Z"
      fill="#F2F3F3"></path>
    <path
      d="M67.3637 62.695C67.4757 64.2537 66.3023 65.5177 64.7437 65.5177C63.185 65.5177 61.8303 64.2537 61.7183 62.695C61.6063 61.1363 62.7784 59.8723 64.337 59.8723C65.897 59.8723 67.2517 61.1363 67.3637 62.695Z"
      fill="#F2F3F3"></path>
    <path
      d="M72.5302 80.9999C72.1942 80.9999 71.9102 80.7399 71.8862 80.3999C71.5595 75.8612 64.4409 72.1692 56.0195 72.1692C50.4395 72.1692 45.4289 73.8279 42.9449 76.4986C41.8395 77.6866 41.3275 78.9679 41.4249 80.3066C41.4502 80.6626 41.1822 80.9719 40.8262 80.9972C40.4689 81.0199 40.1609 80.7559 40.1356 80.3999C40.0142 78.7119 40.6582 77.0586 41.9982 75.6186C44.7196 72.6932 50.0929 70.8772 56.0195 70.8772C65.2582 70.8772 72.7942 75.0186 73.1742 80.3066C73.2009 80.6626 72.9329 80.9719 72.5769 80.9972L72.5302 80.9999Z"
      fill="#F2F3F3"></path>
    <path
      d="M38.6459 56.9746C38.4886 56.9746 38.3313 56.9173 38.2073 56.8026C37.9446 56.5586 37.93 56.1506 38.1726 55.8893L41.0046 52.8386C41.2473 52.5759 41.6566 52.5626 41.9166 52.8039C42.1793 53.0466 42.1939 53.456 41.9513 53.7173L39.1193 56.7679C38.9926 56.9053 38.8193 56.9746 38.6459 56.9746Z"
      fill="#F2F3F3"></path>
    <path
      d="M71.2017 56.9746C71.0444 56.9746 70.8857 56.9173 70.7617 56.8013L67.4911 53.7493C67.2297 53.5066 67.2151 53.0973 67.4591 52.8373C67.7017 52.5759 68.1111 52.5613 68.3724 52.8053L71.643 55.8559C71.903 56.0986 71.9177 56.5079 71.6737 56.7693C71.547 56.9053 71.3751 56.9746 71.2017 56.9746Z"
      fill="#F2F3F3"></path>
  </g>
  <defs>
    <filter id="filter0_d_364_47477" x="0" y="0" width="120" height="148"
      filterUnits="userSpaceOnUse" color-interpolation-filters="sRGB">
      <feFlood flood-opacity="0" result="BackgroundImageFix"></feFlood>
      <feColorMatrix in="SourceAlpha" type="matrix"
        values="0 0 0 0 0 0 0 0 0 0 0 0 0 0 0 0 0 0 127 0" result="hardAlpha"></feColorMatrix>
      <feOffset dx="4" dy="7"></feOffset>
      <feGaussianBlur stdDeviation="12"></feGaussianBlur>
      <feColorMatrix type="matrix" values="0 0 0 0 0 0 0 0 0 0 0 0 0 0 0 0 0 0 0.24 0"></feColorMatrix>
      <feBlend mode="normal" in2="BackgroundImageFix" result="effect1_dropShadow_364_47477"></feBlend>
      <feBlend mode="normal" in="SourceGraphic" in2="effect1_dropShadow_364_47477" result="shape"></feBlend>
    </filter>
    <clipPath id="clip0_364_47477">
      <rect width="72" height="100" fill="white" transform="translate(20 17)"></rect>
    </clipPath>
  </defs>
</svg>