<svg width="48" height="48" viewBox="0 0 48 48" fill="none" xmlns="http://www.w3.org/2000/svg">
  <g clip-path="url(#clip0_364_47529)">
    <path
      d="M0 24C0 10.7452 10.7452 0 24 0C37.2548 0 48 10.7452 48 24C48 37.2548 37.2548 48 24 48C10.7452 48 0 37.2548 0 24Z"
      fill="#00A2FF" />
    <mask id="mask0_364_47529" style="mask-type:luminance" maskUnits="userSpaceOnUse" x="12" y="12"
      width="24" height="24">
      <path d="M36 12H12V36H36V12Z" fill="white" />
    </mask>
    <g mask="url(#mask0_364_47529)">
      <path
        d="M27.5006 25.9999H26.7106L26.4306 25.7299C27.6306 24.3299 28.2506 22.4199 27.9106 20.3899C27.4406 17.6099 25.1206 15.3899 22.3206 15.0499C18.0906 14.5299 14.5306 18.0899 15.0506 22.3199C15.3906 25.1199 17.6106 27.4399 20.3906 27.9099C22.4206 28.2499 24.3306 27.6299 25.7306 26.4299L26.0006 26.7099V27.4999L30.2506 31.7499C30.6606 32.1599 31.3306 32.1599 31.7406 31.7499C32.1506 31.3399 32.1506 30.6699 31.7406 30.2599L27.5006 25.9999ZM21.5006 25.9999C19.0106 25.9999 17.0006 23.9899 17.0006 21.4999C17.0006 19.0099 19.0106 16.9999 21.5006 16.9999C23.9906 16.9999 26.0006 19.0099 26.0006 21.4999C26.0006 23.9899 23.9906 25.9999 21.5006 25.9999Z"
        fill="white" />
    </g>
  </g>
  <defs>
    <clipPath id="clip0_364_47529">
      <rect width="48" height="48" fill="white" />
    </clipPath>
  </defs>
</svg>