<?xml version="1.0" encoding="UTF-8"?>
<svg xmlns:xodm="http://www.corel.com/coreldraw/odm/2003" xmlns="http://www.w3.org/2000/svg" xmlns:xlink="http://www.w3.org/1999/xlink" version="1.1" id="Layer_1" x="0px" y="0px" viewBox="0 0 2500 900" style="enable-background:new 0 0 2500 900;" xml:space="preserve">
<style type="text/css">
	.st0{fill-rule:evenodd;clip-rule:evenodd;fill:#9FF3FF;}
</style>
<g id="Layer_x0020_1">
	<path class="st0" d="M945,3L602,439l362,459H763c-42,0-77-18-108-58L465,597L275,840c-32,37-69,58-108,58H35c-21,0-32-8-34-29   c0-8,5-18,13-32l314-401L27,64c-8-13-11-21-11-32C16,14,27,3,50,3h132c42,0,77,18,108,58l172,216L634,61c32-40,66-58,108-58h45H945   z M2484,832c0,34-29,63-63,63h-282c-180,0-312-37-393-108c-37-32-66-74-87-124c21-61,34-132,34-214s-11-153-34-214   c21-50,48-92,87-124c79-74,211-111,391-111h301c34,0,63,29,63,63l0,0v114h-359c-111,0-187,21-227,61c-40,42-61,111-61,209   s21,169,61,209s116,61,227,61h341l3,116l0,0L2484,832z M1615,235c8,21,16,42,21,63c11,50,18,100,16,153c0,50-5,103-16,153   c-5,21-11,42-21,63c-21,50-48,92-87,124c-82,71-214,108-393,108h-127L868,722h259c111,0,187-21,227-61s61-111,61-209   s-21-169-61-209c-40-42-116-61-227-61H852L992,5h143c180,0,312,37,393,108c40,26,66,69,87,119l0,0V235z M828,663L648,436l180-224   V663z"></path>
</g>
</svg>
