<svg xmlns="http://www.w3.org/2000/svg" fill="none" viewBox="16 3 37.43 40.45">
  <g clip-path="url(#clip0_364_47333)" filter="url(#filter0_dddddd_364_47333)">
    <path d="M52.2578 12.2987L35.7906 3.27581C35.4601 3.09485 35.0895 3 34.7127 3C34.336 3 33.9654 3.09485 33.6349 3.27581L17.1677 12.2987C16.8144 12.4921 16.5196 12.7771 16.3142 13.1237C16.1088 13.4703 16.0002 13.8658 16 14.2688V32.1797C16.0002 32.5827 16.1088 32.9782 16.3142 33.3248C16.5196 33.6714 16.8144 33.9563 17.1677 34.1498L33.6349 43.1726C33.9651 43.3544 34.3359 43.4498 34.7127 43.4498C35.0896 43.4498 35.4604 43.3544 35.7906 43.1726L52.2578 34.1498C52.6111 33.9563 52.9059 33.6714 53.1113 33.3248C53.3167 32.9782 53.4252 32.5827 53.4255 32.1797V14.2688C53.4252 13.8658 53.3167 13.4703 53.1113 13.1237C52.9059 12.7771 52.6111 12.4921 52.2578 12.2987ZM34.3535 4.59048C34.4633 4.52914 34.587 4.49694 34.7127 4.49694C34.8385 4.49694 34.9622 4.52914 35.072 4.59048L51.3053 13.486L34.7127 22.5725L18.1202 13.486L34.3535 4.59048ZM17.8862 32.837C17.7684 32.7725 17.6701 32.6774 17.6016 32.5617C17.5331 32.4461 17.497 32.3141 17.497 32.1797V14.8512L33.9642 23.8703V41.6445L17.8862 32.837ZM51.5392 32.837L35.4612 41.6389V23.8703L51.9285 14.8512V32.1797C51.9282 32.3138 51.8919 32.4454 51.8234 32.5607C51.7549 32.676 51.6568 32.7707 51.5392 32.8351V32.837Z" fill="#B9E5FF"/>
    <path d="M34.3544 4.59037C34.4642 4.52903 34.5879 4.49683 34.7136 4.49683C34.8394 4.49683 34.9631 4.52903 35.0729 4.59037L51.3062 13.4859L34.7136 22.5724L18.1211 13.4859L34.3544 4.59037Z" fill="#B9E5FF"/>
    <path d="M17.8853 32.8371C17.7675 32.7726 17.6692 32.6775 17.6007 32.5618C17.5322 32.4462 17.4961 32.3142 17.4961 32.1798V14.8513L33.9633 23.8704V41.6446L17.8853 32.8371Z" fill="#B9E5FF"/>
    <path d="M51.5389 32.8371L35.4609 41.639V23.8704L51.9282 14.8513V32.1798C51.9279 32.3139 51.8916 32.4455 51.8231 32.5608C51.7546 32.6761 51.6565 32.7708 51.5389 32.8352V32.8371Z" fill="#B9E5FF"/>
    <path fill-rule="evenodd" clip-rule="evenodd" d="M33.4415 3.32898C33.831 3.11316 34.2683 3 34.7127 3C35.1572 3 35.5944 3.11316 35.9839 3.32898L51.8555 12.1239C52.3748 12.4117 52.7913 12.8566 53.046 13.3959L53.1692 13.6566L53.1599 13.6616C53.3351 14.1158 53.4254 14.5996 53.4254 15.0886V31.5808C53.4254 31.9968 53.3467 32.409 53.1935 32.7952C52.9156 33.4954 52.4061 34.0773 51.7514 34.4422L36.3591 43.0217C35.8551 43.3026 35.2886 43.45 34.7127 43.45H34.4125V43.4366C33.941 43.3943 33.4823 43.2526 33.0667 43.0196L17.7139 34.4115C17.1002 34.0674 16.6099 33.5368 16.3129 32.8952C16.1068 32.4501 16 31.9648 16 31.4736V15.1326C16 14.5385 16.1292 13.9516 16.3784 13.4132C16.6329 12.8634 17.0544 12.4096 17.5819 12.1173L33.4415 3.32898ZM35.0129 42.8285C35.3825 42.7884 35.7415 42.6744 36.0686 42.4921L51.4609 33.9126C51.9944 33.6152 52.4096 33.141 52.636 32.5704C52.7609 32.2557 52.825 31.9198 52.825 31.5808V15.0886C52.825 14.6994 52.7574 14.314 52.626 13.9498L35.0129 23.4567V42.8285ZM34.7126 22.9322L52.3646 13.4043C52.1652 13.0927 51.8913 12.8344 51.5663 12.6543L35.6947 3.85937C35.3938 3.69265 35.056 3.60524 34.7127 3.60524C34.3694 3.60524 34.0316 3.69265 33.7308 3.85937L17.8711 12.6477C17.5387 12.8319 17.2597 13.0975 17.0586 13.418L34.7126 22.9322ZM16.8015 13.9657C16.6687 14.3394 16.6004 14.7341 16.6004 15.1326V31.4736C16.6004 31.8764 16.688 32.2743 16.857 32.6393C17.1005 33.1653 17.5025 33.6004 18.0058 33.8826L33.3585 42.4907C33.6848 42.6736 34.0433 42.7881 34.4125 42.8284V23.4568L16.8015 13.9657Z" fill="#00A2FF"/>
  </g>
</svg>